#!OML:ASF H:\BabyWalks\Project 1\Capture day 1\Session 1\baby.ASF
:FULLY-SPECIFIED
:DEGREES
478
root 14.963 17.6698 -0.362881 -74.7262 86.0063 -80.7683
lowerback 21.7298 0.946164 -3.07088
upperback 6.20117 0.864879 -2.35202
thorax -5.36044 0.627286 -1.02105
lowerneck -2.14967 0.781506 5.93923
upperneck 1.38893 0.88667 0.755168
head 0.809612 0.49817 -0.743347
rclavicle -7.15625e-015 4.92986e-014
rhumerus -54.2168 6.41995 -89.3802
rradius 41.6589
rwrist 2.07478
rhand -14.8285 -14.7531
rfingers 7.12502
rthumb 11.3301 -44.4271
lclavicle -7.15625e-015 4.92986e-014
lhumerus -46.3697 0.904916 68.198
lradius 47.8689
lwrist -7.16297
lhand -10.9705 12.6541
lfingers 7.12502
lthumb 15.0489 42.0871
rfemur -19.9164 -1.43606 21.105
rtibia 65.5295
rfoot -10.6047 -0.276037
rtoes -14.2532
lfemur -24.5986 2.11708 -15.0317
ltibia 37.3806
lfoot -18.451 -2.56209
ltoes -6.62789
479
root 15.1012 17.6972 -0.33811 -81.5183 86.0909 -87.5949
lowerback 21.935 0.813594 -3.23789
upperback 6.17218 0.651247 -2.31594
thorax -5.49731 0.52634 -0.836887
lowerneck -2.17529 0.734282 5.81236
upperneck 1.44221 0.822016 0.959834
head 0.826143 0.469352 -0.658718
rclavicle 7.95139e-016 -6.83819e-014
rhumerus -54.2964 6.73671 -89.4794
rradius 42.0843
rwrist 1.44841
rhand -14.3041 -13.9975
rfingers 7.12502
rthumb 11.8359 -43.6431
lclavicle 7.95139e-016 -6.83819e-014
lhumerus -45.5569 1.06622 68.23
lradius 50.3547
lwrist -5.71635
lhand -15.1313 12.3096
lfingers 7.12502
lthumb 11.0381 41.9993
rfemur -21.1867 -1.75631 21.1636
rtibia 65.1341
rfoot -11.3339 -0.411729
rtoes -13.8004
lfemur -24.0601 1.87594 -14.9636
ltibia 37.0854
lfoot -18.5536 -2.80739
ltoes -6.80674
480
root 15.2381 17.7262 -0.310688 -89.0031 86.0821 -95.1041
lowerback 22.1593 0.682078 -3.34989
upperback 6.14836 0.450883 -2.26922
thorax -5.63688 0.432256 -0.674895
lowerneck -2.18041 0.670011 5.6849
upperneck 1.45222 0.737101 1.17628
head 0.825391 0.429516 -0.570839
rclavicle 1.11319e-014 -9.54166e-015
rhumerus -54.3778 6.99319 -89.5562
rradius 42.5369
rwrist 0.623128
rhand -13.6718 -13.534
rfingers 7.12502
rthumb 12.4456 -43.1435
lclavicle 1.11319e-014 -9.54166e-015
lhumerus -44.8243 1.02551 68.3458
lradius 53.0427
lwrist -4.33708
lhand -18.6873 11.7914
lfingers 7.12502
lthumb 7.60694 41.6346
rfemur -22.3669 -2.03566 21.2875
rtibia 64.4187
rfoot -12.0141 -0.589115
rtoes -13.4333
lfemur -23.5374 1.68631 -14.8479
ltibia 36.8053
lfoot -18.6279 -3.15066
ltoes -6.97985
481
root 15.3746 17.7566 -0.281184 -96.7039 85.9792 -102.819
lowerback 22.3899 0.551904 -3.41291
upperback 6.13477 0.264355 -2.21171
thorax -5.76759 0.345152 -0.531372
lowerneck -2.17272 0.590189 5.55247
upperneck 1.42265 0.633574 1.38886
head 0.810108 0.379233 -0.483837
rclavicle -7.95139e-015 1.59028e-014
rhumerus -54.4553 7.19103 -89.6038
rradius 43.005
rwrist -0.321062
rhand -12.9568 -13.4003
rfingers 7.12502
rthumb 13.1348 -42.9666
lclavicle -7.95139e-015 1.59028e-014
lhumerus -44.1475 0.819648 68.5107
lradius 55.8574
lwrist -3.09739
lhand -21.5486 11.0318
lfingers 7.12502
lthumb 4.84462 40.9565
rfemur -23.4497 -2.2801 21.4545
rtibia 63.3986
rfoot -12.6433 -0.819111
rtoes -13.0957
lfemur -23.028 1.54256 -14.697
ltibia 36.5444
lfoot -18.671 -3.58438
ltoes -7.1518
482
root 15.5115 17.7879 -0.25021 -104.094 85.7911 -110.22
lowerback 22.6121 0.428912 -3.43337
upperback 6.12889 0.0982729 -2.14664
thorax -5.88523 0.267949 -0.407908
lowerneck -2.15282 0.493082 5.40845
upperneck 1.36644 0.508913 1.60137
head 0.784479 0.31751 -0.395449
rclavicle 2.46493e-014 7.95139e-015
rhumerus -54.532 7.31894 -89.6149
rradius 43.4759
rwrist -1.30304
rhand -12.2025 -13.5711
rfingers 7.12502
rthumb 13.8619 -43.0892
lclavicle 2.46493e-014 7.95139e-015
lhumerus -43.4965 0.472482 68.6971
lradius 58.718
lwrist -2.03876
lhand -23.6593 9.99385
lfingers 7.12502
lthumb 2.80641 39.9551
rfemur -24.4384 -2.48585 21.6436
rtibia 62.0923
rfoot -13.2226 -1.10585
rtoes -12.7793
lfemur -22.5357 1.43576 -14.5233
ltibia 36.3038
lfoot -18.673 -4.08679
ltoes -7.35511
483
root 15.6498 17.8199 -0.218422 -110.901 85.5403 -117.041
lowerback 22.8082 0.316339 -3.42143
upperback 6.13208 -0.0446984 -2.0807
thorax -5.97953 0.201746 -0.306791
lowerneck -2.13455 0.37728 5.25195
upperneck 1.30167 0.359792 1.81375
head 0.756599 0.243174 -0.305614
rclavicle -2.22639e-014 -1.27222e-014
rhumerus -54.6034 7.3734 -89.5876
rradius 43.9352
rwrist -2.25967
rhand -11.4645 -13.9717
rfingers 7.12502
rthumb 14.573 -43.4398
lclavicle -2.22639e-014 -1.27222e-014
lhumerus -42.8418 0.00176683 68.8876
lradius 61.5491
lwrist -1.1463
lhand -25.0436 8.67331
lfingers 7.12502
lthumb 1.46942 38.648
rfemur -25.3371 -2.64952 21.8237
rtibia 60.5191
rfoot -13.7572 -1.43155
rtoes -12.4476
lfemur -22.0614 1.35101 -14.348
ltibia 36.0837
lfoot -18.6307 -4.62964
ltoes -7.59477
484
root 15.7898 17.8523 -0.18617 -116.988 85.2388 -123.152
lowerback 22.9617 0.211714 -3.39472
upperback 6.14186 -0.171049 -2.0077
thorax -6.04482 0.143108 -0.209746
lowerneck -2.1167 0.252643 5.09191
upperneck 1.2386 0.198999 2.00304
head 0.729955 0.162581 -0.222718
rclavicle -1.51076e-014 -2.70347e-014
rhumerus -54.667 7.38261 -89.5223
rradius 44.3655
rwrist -3.14415
rhand -10.7771 -14.5081
rfingers 7.12502
rthumb 15.2352 -43.9271
lclavicle -1.51076e-014 -2.70347e-014
lhumerus -42.1833 -0.555121 69.0743
lradius 64.2915
lwrist -0.370846
lhand -25.799 7.0654
lfingers 7.12502
lthumb 0.739858 37.0439
rfemur -26.152 -2.76718 21.9844
rtibia 58.6963
rfoot -14.2401 -1.78178
rtoes -12.1119
lfemur -21.6089 1.27393 -14.1743
ltibia 35.8829
lfoot -18.5405 -5.18619
ltoes -7.88791
485
root 15.9319 17.8846 -0.153651 -122.365 84.9027 -128.566
lowerback 23.068 0.119847 -3.35731
upperback 6.15521 -0.27599 -1.93199
thorax -6.08231 0.0942517 -0.120879
lowerneck -2.10482 0.11563 4.93399
upperneck 1.1898 0.0208318 2.17359
head 0.709308 0.0733696 -0.146382
rclavicle -7.15625e-015 -9.54166e-015
rhumerus -54.7261 7.34279 -89.4253
rradius 44.7537
rwrist -3.92682
rhand -10.2014 -15.076
rfingers 7.12502
rthumb 15.7897 -44.452
lclavicle -7.15625e-015 -9.54166e-015
lhumerus -41.5054 -1.2069 69.26
lradius 66.8999
lwrist 0.344945
lhand -26.0508 5.2358
lfingers 7.12502
lthumb 0.496715 35.215
rfemur -26.8859 -2.8359 22.1126
rtibia 56.6422
rfoot -14.6663 -2.14747
rtoes -11.7646
lfemur -21.1765 1.19321 -14.0106
ltibia 35.6976
lfoot -18.4064 -5.73288
ltoes -8.24232
486
root 16.0761 17.9169 -0.12125 -127.121 84.5432 -133.374
lowerback 23.1231 0.0390926 -3.32073
upperback 6.17267 -0.363874 -1.84751
thorax -6.08925 0.0530057 -0.0261372
lowerneck -2.11399 -0.0269317 4.77068
upperneck 1.16963 -0.166939 2.31823
head 0.701716 -0.0202575 -0.0774737
rclavicle 7.95139e-015 -4.77083e-015
rhumerus -54.7747 7.28441 -89.2966
rradius 45.0914
rwrist -4.59771
rhand -9.74374 -15.6047
rfingers 7.12502
rthumb 16.2304 -44.9453
lclavicle 7.95139e-015 -4.77083e-015
lhumerus -40.8157 -1.93193 69.456
lradius 69.3564
lwrist 1.03772
lhand -25.9343 3.3179
lfingers 7.12502
lthumb 0.609207 33.2968
rfemur -27.5423 -2.85338 22.1934
rtibia 54.3724
rfoot -15.0302 -2.50025
rtoes -11.3489
lfemur -20.7624 1.09793 -13.8631
ltibia 35.5207
lfoot -18.2314 -6.25367
ltoes -8.64432
487
root 16.222 17.9483 -0.0888053 -131.41 84.1597 -137.727
lowerback 23.1392 -0.0354515 -3.29173
upperback 6.19168 -0.443184 -1.75112
thorax -6.07437 0.0154055 0.0837341
lowerneck -2.13657 -0.173018 4.59886
upperneck 1.17783 -0.361068 2.44084
head 0.705808 -0.11668 -0.0142203
rclavicle -7.95139e-015 -1.43125e-014
rhumerus -54.8141 7.23586 -89.1464
rradius 45.3777
rwrist -5.15265
rhand -9.4316 -16.043
rfingers 7.12502
rthumb 16.5309 -45.3589
lclavicle -7.95139e-015 -1.43125e-014
lhumerus -40.1316 -2.71738 69.6681
lradius 71.6648
lwrist 1.70215
lhand -25.5617 1.51455
lfingers 7.12502
lthumb 0.969057 31.4921
rfemur -28.1128 -2.83614 22.2285
rtibia 51.9051
rfoot -15.3307 -2.85087
rtoes -10.9717
lfemur -20.3607 0.976316 -13.7305
ltibia 35.3456
lfoot -18.03 -6.74479
ltoes -9.06095
488
root 16.3693 17.9789 -0.0565442 -135.258 83.7512 -141.644
lowerback 23.1269 -0.102213 -3.25783
upperback 6.21099 -0.509677 -1.64378
thorax -6.0447 -0.016482 0.199181
lowerneck -2.16803 -0.325809 4.42735
upperneck 1.20949 -0.565476 2.53801
head 0.719211 -0.218001 0.0408751
rclavicle -7.95139e-015 -1.43125e-014
rhumerus -54.8475 7.1776 -88.9724
rradius 45.6124
rwrist -5.57616
rhand -9.25809 -16.3632
rfingers 7.12502
rthumb 16.698 -45.665
lclavicle -7.95139e-015 -1.43125e-014
lhumerus -39.4536 -3.5643 69.9054
lradius 73.8198
lwrist 2.31844
lhand -25.0434 -0.0341392
lfingers 7.12502
lthumb 1.46964 29.9405
rfemur -28.5934 -2.78809 22.2208
rtibia 49.2577
rfoot -15.5655 -3.19882
rtoes -10.667
lfemur -19.9579 0.817502 -13.606
ltibia 35.1615
lfoot -17.816 -7.19797
ltoes -9.47048
